<?xml version="1.0" encoding="utf-8"?>
<!-- Generator: Adobe Illustrator 19.0.0, SVG Export Plug-In . SVG Version: 6.00 Build 0)  -->
<svg version="1.1" id="Layer_1" xmlns="http://www.w3.org/2000/svg" xmlns:xlink="http://www.w3.org/1999/xlink" x="0px" y="0px"
	 viewBox="0 0 95 95" style="enable-background:new 0 0 95 95;" xml:space="preserve">
<path d="M70,28H25c-0.8,0-1.5,0.7-1.5,1.5v36c0,0.8,0.7,1.5,1.5,1.5h45c0.8,0,1.5-0.7,1.5-1.5v-36C71.5,28.7,70.8,28,70,28z
	 M68.5,64h-42V41.7h42V64z M68.5,38.7h-42V31h42V38.7z M31.3,36.3c0.8,0,1.4-0.6,1.4-1.4s-0.6-1.4-1.4-1.4S30,34.1,30,34.9
	S30.6,36.3,31.3,36.3z M36.7,36.3c0.8,0,1.4-0.6,1.4-1.4s-0.6-1.4-1.4-1.4s-1.4,0.6-1.4,1.4S35.9,36.3,36.7,36.3z M42,36.3
	c0.8,0,1.4-0.6,1.4-1.4s-0.6-1.4-1.4-1.4s-1.4,0.6-1.4,1.4S41.3,36.3,42,36.3z"/>
</svg>
