<?xml version="1.0" encoding="utf-8"?>
<!-- Generator: Adobe Illustrator 19.0.0, SVG Export Plug-In . SVG Version: 6.00 Build 0)  -->
<svg version="1.1" id="Layer_1" xmlns="http://www.w3.org/2000/svg" xmlns:xlink="http://www.w3.org/1999/xlink" x="0px" y="0px"
	 viewBox="0 -3 42 42" style="enable-background:new 0 -3 42 42;" xml:space="preserve">
<path d="M23.9,27.1c-0.3,0-0.5-0.1-0.7-0.3l-8.1-8.1c-0.4-0.4-0.4-1,0-1.4l8.1-8.1c0.4-0.4,1-0.4,1.4,0s0.4,1,0,1.4L17.2,18l7.4,7.4
	c0.4,0.4,0.4,1,0,1.4C24.4,27,24.2,27.1,23.9,27.1z M21,4c7.7,0,14,6.3,14,14s-6.3,14-14,14S7,25.7,7,18S13.3,4,21,4 M21,2
	C12.2,2,5,9.2,5,18s7.2,16,16,16s16-7.2,16-16S29.8,2,21,2z"/>
</svg>
