<?xml version="1.0" encoding="utf-8"?>
<!-- Generated by IcoMoon.io -->
<!DOCTYPE svg PUBLIC "-//W3C//DTD SVG 1.1//EN" "http://www.w3.org/Graphics/SVG/1.1/DTD/svg11.dtd">
<svg version="1.1" xmlns="http://www.w3.org/2000/svg" xmlns:xlink="http://www.w3.org/1999/xlink" width="45" height="42" viewBox="0 0 45 42">
<path fill="#c99065" d="M14.461 32.789l-1.172 1.172q-0.234 0.234-0.539 0.234t-0.539-0.234l-10.922-10.922q-0.234-0.234-0.234-0.539t0.234-0.539l10.922-10.922q0.234-0.234 0.539-0.234t0.539 0.234l1.172 1.172q0.234 0.234 0.234 0.539t-0.234 0.539l-9.211 9.211 9.211 9.211q0.234 0.234 0.234 0.539t-0.234 0.539zM28.313 7.781l-8.742 30.258q-0.094 0.305-0.363 0.457t-0.551 0.059l-1.453-0.398q-0.305-0.094-0.457-0.363t-0.059-0.574l8.742-30.258q0.094-0.305 0.363-0.457t0.551-0.059l1.453 0.398q0.305 0.094 0.457 0.363t0.059 0.574zM43.711 23.039l-10.922 10.922q-0.234 0.234-0.539 0.234t-0.539-0.234l-1.172-1.172q-0.234-0.234-0.234-0.539t0.234-0.539l9.211-9.211-9.211-9.211q-0.234-0.234-0.234-0.539t0.234-0.539l1.172-1.172q0.234-0.234 0.539-0.234t0.539 0.234l10.922 10.922q0.234 0.234 0.234 0.539t-0.234 0.539z"></path>
</svg>
