<?xml version="1.0" encoding="utf-8"?>
<!-- Generator: Adobe Illustrator 19.0.0, SVG Export Plug-In . SVG Version: 6.00 Build 0)  -->
<svg version="1.1" id="Layer_1" xmlns="http://www.w3.org/2000/svg" xmlns:xlink="http://www.w3.org/1999/xlink" x="0px" y="0px"
	 viewBox="6 0 95 95" style="enable-background:new 6 0 95 95;" xml:space="preserve">
<path d="M53.5,71.5c-8.3,0-15-6.7-15-15v-18c0-8.3,6.7-15,15-15s15,6.7,15,15v18C68.5,64.8,61.8,71.5,53.5,71.5z M53.5,26.5
	c-6.6,0-12,5.4-12,12v18c0,6.6,5.4,12,12,12s12-5.4,12-12v-18C65.5,31.9,60.1,26.5,53.5,26.5z M53.7,44c-2.1,0-3.8-1.7-3.8-3.8v-4.5
	c0-2.1,1.7-3.8,3.8-3.8s3.8,1.7,3.8,3.8v4.5C57.4,42.3,55.8,44,53.7,44z M53.7,35c-0.4,0-0.8,0.3-0.8,0.8v4.5c0,0.4,0.3,0.8,0.8,0.8
	s0.8-0.3,0.8-0.8v-4.5C54.4,35.4,54.1,35,53.7,35z"/>
</svg>
