<?xml version="1.0" encoding="utf-8"?>
<!-- Generator: Adobe Illustrator 19.0.0, SVG Export Plug-In . SVG Version: 6.00 Build 0)  -->
<svg version="1.1" id="Layer_1" xmlns="http://www.w3.org/2000/svg" xmlns:xlink="http://www.w3.org/1999/xlink" x="0px" y="0px"
	 viewBox="0 0 92 92" style="enable-background:new 0 0 92 92;" xml:space="preserve">
<path d="M65.4,28.5c0.3-1.1-0.8-2.2-1.8-1.8l-12.1,3.8l0,0l0,0l0,0l-0.2,0.1l0,0L51,30.7l-0.2,0.1l0,0l-19,19l0,0l0,0L27,54.6
	c-0.6,0.6-0.6,1.5,0,2.1l8.3,8.3c0.6,0.6,1.5,0.6,2.1,0l4.7-4.7l19-19l0,0l0.1-0.2l0.1-0.1l0,0l0.1-0.2l0,0l0,0l0,0
	C61.5,40.6,65.4,28.5,65.4,28.5z M59.2,38.1l-3.5-1.8l-1.8-3.5l7.8-2.4C61.7,30.3,59.2,38.1,59.2,38.1z M41.2,57.1l-6.2-6.2
	l16.5-16.5l1.9,3.7c0.1,0.1,0.2,0.3,0.3,0.4c0.1,0.1,0.2,0.2,0.4,0.3l3.7,1.9C57.6,40.6,41.2,57.1,41.2,57.1z M36.4,61.8l-6.2-6.2
	l2.6-2.6l6.2,6.2L36.4,61.8z"/>
</svg>
