<svg xmlns="http://www.w3.org/2000/svg" xmlns:xlink="http://www.w3.org/1999/xlink" version="1.1" x="0" y="0" viewBox="0 0 600 339" enable-background="new 0 0 600 339" xml:space="preserve">
  <g id="Layer_3">
    <path fill="#36324C" d="M-1326.6-837.2v2160h3456v-2160H-1326.6zM233.8 185.3c-10 0-19.3 3.3-26.8 8.9 -1.9-5.3-3.4-10.7-4.5-16.3 9.1-5.5 19.8-8.6 31.3-8.6 3 0 6 0.2 8.9 0.7 1 6.2 2.9 12.2 5.5 17.8C243.7 186.1 238.8 185.3 233.8 185.3zM284 264.4c-5.5-1.4-10.9-3.3-16-5.5 6.6-7.8 10.6-17.9 10.6-28.9 0-3.8-0.5-7.5-1.4-11 5.4 3.1 11.2 5.5 17.3 7.2 0.1 1.3 0.1 2.5 0.1 3.8C294.6 242.8 290.7 254.6 284 264.4z"/>
    <path fill="#36324C" d="M233.8 169.2c-11.4 0-22.1 3.2-31.3 8.6 1.1 5.6 2.6 11.1 4.5 16.3 7.5-5.6 16.7-8.9 26.8-8.9 5.1 0 9.9 0.9 14.4 2.4 -2.6-5.6-4.5-11.6-5.5-17.8C239.8 169.4 236.8 169.2 233.8 169.2z"/>
    <path fill="#36324C" d="M277.2 219.1c0.9 3.5 1.4 7.2 1.4 11 0 11-4 21.1-10.6 28.9 5.2 2.2 10.5 4.1 16 5.5 6.7-9.8 10.6-21.6 10.6-34.4 0-1.3-0.1-2.5-0.1-3.8C288.3 224.6 282.5 222.1 277.2 219.1z"/>
  </g>
  <g id="Logo"/>
  <g id="M">
    <path opacity="0.2" fill="#FFFFFF" d="M312.6 45.6c-62 0-112.2 50.2-112.2 112.2 0 7.7 0.8 15.2 2.3 22.5 9.1-5.4 19.7-8.6 31.1-8.6 3 0 6 0.2 8.9 0.7 1 6.2 2.9 12.2 5.5 17.8 -4.5-1.5-9.4-2.4-14.4-2.4 -9.9 0-19.1 3.2-26.5 8.7 10.7 29 32.9 52.3 61.2 64.4 6.3-7.7 10.1-17.6 10.1-28.4 0-3.7-0.5-7.2-1.3-10.6 -21.1-12.2-35.3-35-35.3-61.2 0-39 31.6-70.6 70.6-70.6 39 0 70.6 31.6 70.6 70.6 0 39-31.6 70.6-70.6 70.6 -6.2 0-12.3-0.8-18.1-2.3 0.1 1.2 0.1 2.3 0.1 3.5 0 12.5-3.8 24.1-10.3 33.8 9 2.3 18.5 3.6 28.2 3.6 62 0 112.2-50.2 112.2-112.2S374.5 45.6 312.6 45.6z"/>
    <path opacity="0.4" fill="#FFFFFF" d="M248.2 190.2c-2.6-5.6-4.5-11.6-5.5-17.8 -2.9-0.4-5.9-0.7-8.9-0.7 -11.4 0-22 3.1-31.1 8.6 1.1 5.6 2.7 11 4.6 16.2 7.4-5.5 16.6-8.7 26.5-8.7C238.8 187.8 243.7 188.7 248.2 190.2z"/>
    <path opacity="0.4" fill="#FFFFFF" d="M294.5 229.1c-6.1-1.6-11.9-4-17.2-7.1 0.8 3.4 1.3 7 1.3 10.6 0 10.8-3.8 20.6-10.1 28.4 5.1 2.2 10.5 4 16 5.5 6.5-9.7 10.3-21.3 10.3-33.8C294.6 231.4 294.6 230.3 294.5 229.1z"/>
    <path opacity="0.2" fill="#FFFFFF" d="M268 261.5c-8.2 9.7-20.5 15.9-34.2 15.9 -24.7 0-44.8-20-44.8-44.8 0-14.7 7.1-27.7 18-35.9 -1.9-5.3-3.4-10.7-4.5-16.3 -17.7 10.6-29.6 30-29.6 52.2 0 33.6 27.3 60.9 60.9 60.9 20.9 0 39.3-10.5 50.2-26.5C278.5 265.5 273.1 263.7 268 261.5z"/>
    <path opacity="0.2" fill="#FFFFFF" d="M278.4 191.2l-6.6-0.6 0-5.5c-8.2-6.6-18.2-11-29.1-12.7 1 6.2 2.9 12.2 5.5 17.8 14.2 4.9 25.3 16.7 29 31.4 5.4 3.1 11.2 5.5 17.3 7.2C293.6 214.3 287.6 201.2 278.4 191.2z"/>
    <path fill="#FFFFFF" d="M447.4 52.8c15.1 0 27.2 12.4 27.2 27.7 0 15.3-12.2 27.7-27.2 27.7 -9.6 0-18-5-22.8-12.6l1.2-0.6 -3.8-5.4 -0.2 0.1c-1-2.9-1.6-6-1.6-9.3C420.1 65.3 432.3 52.8 447.4 52.8zM469.9 80.4c0-12.7-10.3-23-23-23 -12.7 0-23 10.3-23 23 0 12.7 10.3 23 23 23C459.6 103.4 469.9 93.1 469.9 80.4z"/>
    <path fill="#FFFFFF" d="M421.9 89.8l3.8 5.4 -1.2 0.6c-1.2-1.8-2.1-3.8-2.9-5.9L421.9 89.8z"/>
    <path fill="#FFFFFF" d="M424.6 95.7l-64 33.4c-1.2-1.8-2.6-3.6-4.1-5.2l65.2-34.1C422.4 92 423.4 93.9 424.6 95.7z"/>
    <path fill="#FFFFFF" d="M360.6 129.2c6.2 9 9.8 19.9 9.8 31.6 0 30.8-25 55.8-55.8 55.8 -15 0-28.5-5.9-38.5-15.5l1.9-1.9 -5.4-3.8 -1 0.9c-8-9.7-12.8-22.1-12.8-35.6 0-30.8 25-55.8 55.8-55.8 16.7 0 31.7 7.3 41.9 19l-2 1 3.8 5.4L360.6 129.2zM357.4 180.2c3-6.2 4.6-13.2 4.6-20.5 0-26.2-21.2-47.4-47.4-47.4 -13.5 0-25.8 5.7-34.4 14.8h-6.4v8.4c-4.2 7.1-6.6 15.4-6.6 24.2 0 8.9 2.4 17.1 6.6 24.2v7h5.1c8.7 9.9 21.4 16.2 35.7 16.2 14.2 0 27-6.3 35.7-16.2h7.1V180.2z"/>
    <path fill="#FFFFFF" d="M360.6 129.2l-2.2 1.2 -3.8-5.4 2-1C358 125.6 359.3 127.4 360.6 129.2z"/>
    <path fill="#FFFFFF" d="M278 199.2l-1.9 1.9c-1.6-1.5-3-3.1-4.4-4.7l1-0.9L278 199.2z"/>
    <path fill="#FFFFFF" d="M276 201.1l-11.9 11.3c-1.3-1.8-2.7-3.4-4.3-4.9l11.8-11.1C273 198 274.4 199.6 276 201.1z"/>
    <path fill="#FFFFFF" d="M264.1 212.4c4.2 5.8 6.7 13 6.7 20.7 0 19.7-16.1 35.6-36 35.6 -19.9 0-36-15.9-36-35.6 0-4.9 1-9.6 2.8-13.9l1.2 0.7 1.5-3.8 -0.9-0.5c6.2-10.8 17.9-18.1 31.3-18.1 9.7 0 18.5 3.8 25 10l-1 0.9 3.1 6.1L264.1 212.4zM265.5 233.1c0-17.1-13.9-31-31-31s-31 13.9-31 31 13.9 31 31 31S265.5 250.2 265.5 233.1z"/>
    <path fill="#FFFFFF" d="M264.1 212.4l-2.2 2.1 -3.1-6.1 1-0.9C261.4 209 262.9 210.6 264.1 212.4z"/>
    <path fill="#FFFFFF" d="M204.4 216.1l-1.5 3.8 -1.2-0.7c0.5-1.3 1.2-2.5 1.8-3.7L204.4 216.1z"/>
    <path fill="#FFFFFF" d="M167.8 194.8l35.7 20.7c-0.7 1.2-1.3 2.4-1.8 3.7l-36.1-19.8C166.5 198 167.3 196.5 167.8 194.8z"/>
    <path fill="#FFFFFF" d="M169 187.6c0 2.5-0.4 5-1.2 7.3l-1.6-0.9 -2.3 4.6 1.7 1c-3.8 6.2-10.7 10.3-18.4 10.3 -12.1 0-21.8-9.9-21.8-22.2 0-12.3 9.8-22.2 21.8-22.2C159.2 165.4 169 175.3 169 187.6zM164.4 187.6c0-9.7-7.7-17.6-17.2-17.6 -9.5 0-17.2 7.9-17.2 17.6 0 9.7 7.7 17.6 17.2 17.6C156.7 205.2 164.4 197.3 164.4 187.6z"/>
    <path fill="#FFFFFF" d="M166.2 193.9l1.6 0.9c-0.6 1.6-1.3 3.2-2.2 4.6l-1.7-1L166.2 193.9z"/>
    <path fill="#FFFFFF" d="M343.7 186.3l-0.2-36.4c0-4.7-0.7-8.1-2-10 -1.3-2-3.6-2.9-6.8-2.9 -4.8 0-9.5 3.1-14.2 9.1l0.2 40.4 -10.1 0.1 -0.2-36.4c0-4.7-0.7-8-2.1-10 -1.4-2-3.6-3-6.8-2.9 -4.9 0-9.6 3.1-14.1 9.1l0.2 40.4 -10 0.1 -0.3-56.3 10-0.1 0 7.2c4.6-5.6 9.8-8.4 15.6-8.4 8.3 0 13.6 3.3 15.9 10 1.9-2.2 3.6-4 5.2-5.4 1.6-1.3 3-2.4 4.4-3.1 1.3-0.7 2.6-1.2 3.8-1.4 1.2-0.2 2.5-0.3 3.7-0.3 11.6-0.1 17.4 6.8 17.5 20.5l0.2 36.8L343.7 186.3 343.7 186.3z"/>
  </g>
</svg>
