<?xml version="1.0" encoding="utf-8"?>
<!-- Generator: Adobe Illustrator 17.1.0, SVG Export Plug-In . SVG Version: 6.00 Build 0)  -->
<!DOCTYPE svg PUBLIC "-//W3C//DTD SVG 1.1//EN" "http://www.w3.org/Graphics/SVG/1.1/DTD/svg11.dtd">
<svg version="1.1" id="Layer_1" xmlns="http://www.w3.org/2000/svg" xmlns:xlink="http://www.w3.org/1999/xlink" x="0px" y="0px"
	 viewBox="0 0 960 560" enable-background="new 0 0 960 560" xml:space="preserve">
<g>
	<path fill="white" d="M62.8,59.2h-5v-5.4h2.9c2.9,0,5-0.7,6.3-2.1c1.4-1.4,2-3.4,2-5.9c0-2.2-0.7-4.2-2.2-5.8c-1.5-1.6-3.5-2.5-6-2.5
		c-2.5,0-4.6,0.8-6.3,2.5c-1.7,1.7-2.5,3.8-2.5,6.2v29.2c1,1.2,2.4,2.1,4,2.8c1.7,0.7,3.5,1,5.6,1c3,0,5.4-0.9,7.2-2.8
		c1.7-1.9,2.6-4.3,2.6-7.3c0-2.6-0.8-4.9-2.3-7C67.5,60.2,65.4,59.2,62.8,59.2z"/>
	<path fill="white" d="M62.5,0C28,0,0,28,0,62.5S28,125,62.5,125S125,97,125,62.5S97,0,62.5,0z M73.8,80.6c-3,2.8-6.8,4.2-11.5,4.2
		c-1.9,0-3.8-0.3-5.6-0.8s-3.4-1.3-4.7-2.4v15.9H45V46.3c0-3.9,1.6-7.2,4.7-10c3.1-2.8,6.8-4.2,11.1-4.2c4.6,0,8.2,1.3,11,3.9
		c2.8,2.6,4.1,5.9,4.1,10c0,2.1-0.6,4.1-1.7,5.9c-1.2,1.8-2.8,3.2-4.8,4.3c2.8,1,5,2.7,6.5,5c1.5,2.3,2.3,5,2.3,8
		C78.2,74,76.8,77.8,73.8,80.6z"/>
</g>
</svg>
